# xmcd
#
# Track frame offsets:
#	150
#	47092
#	86216
#	92795
#	94124
#	113268
#	124029
#	125410
#	138346
#	156083
#	170395
#
# Disc length: 2766 seconds
# Revision: 0
# Processed by: cddbd v1.5.2PL0 Copyright (c) Steve Scherf et al.
# Submitted via: dBpowerAMP V12.0
#
DISCID=870acc0b
DTITLE=Hale Dwoskin - The Inner Circle Retreat 02 CD 08
DYEAR=2007
DGENRE=Speech
TTITLE0=Am I Becoming Meaningless
TTITLE1=Regrets
TTITLE2=What Did You Use to Believe Is Personal
TTITLE3=Question about the Process
TTITLE4=Partnership Release Demonstration
TTITLE5=Sharing on the Release
TTITLE6=Sharing on the Release
TTITLE7=Question on Feelings and Wants
TTITLE8=We Never Really Created the Mind
TTITLE9=There Is No Happy Channel
TTITLE10=Wanting to Get Enlightenment
EXTD=
EXTT0=
EXTT1=
EXTT2=
EXTT3=
EXTT4=
EXTT5=
EXTT6=
EXTT7=
EXTT8=
EXTT9=
EXTT10=
PLAYORDER=
